<?xml version="1.0" encoding="UTF-8"?>
<svg xmlns="http://www.w3.org/2000/svg" xmlns:xlink="http://www.w3.org/1999/xlink" width="50px" height="50px" viewBox="0 0 50 50" version="1.1">
<g id="surface1">
<path style=" stroke:none;fill-rule:nonzero;fill:rgb(0%,0%,0%);fill-opacity:1;" d="M 25 2.21875 C 15.179688 2.21875 7.21875 10.179688 7.21875 20 C 7.21875 29.820312 15.179688 37.78125 25 37.78125 C 34.820312 37.78125 42.78125 29.820312 42.78125 20 C 42.78125 10.179688 34.820312 2.21875 25 2.21875 Z M 17.632812 30.042969 C 16.101562 30.042969 14.859375 28.796875 14.859375 27.261719 C 14.863281 25.722656 16.105469 24.476562 17.644531 24.480469 C 19.15625 24.484375 20.421875 25.691406 20.417969 27.269531 C 20.417969 28.84375 19.144531 30.046875 17.632812 30.042969 Z M 28.230469 30.046875 C 26.964844 30.042969 25.699219 30.042969 24.433594 30.046875 C 24.378906 30.046875 24.355469 30.035156 24.359375 29.972656 C 24.371094 29.816406 24.339844 29.660156 24.34375 29.503906 C 24.34375 29.363281 24.324219 29.222656 24.3125 29.082031 C 24.292969 28.796875 24.246094 28.515625 24.191406 28.238281 C 24.015625 27.335938 23.71875 26.472656 23.292969 25.660156 C 23.054688 25.214844 22.785156 24.785156 22.484375 24.378906 C 21.601562 23.1875 20.496094 22.253906 19.175781 21.578125 C 18.878906 21.425781 18.570312 21.289062 18.257812 21.171875 C 17.59375 20.917969 16.914062 20.734375 16.207031 20.636719 C 15.789062 20.578125 15.367188 20.546875 14.945312 20.542969 C 14.878906 20.542969 14.859375 20.527344 14.859375 20.457031 C 14.859375 19.203125 14.863281 17.945312 14.859375 16.6875 C 14.859375 16.617188 14.878906 16.601562 14.949219 16.601562 C 18.007812 16.640625 20.753906 17.589844 23.160156 19.472656 C 25.039062 20.941406 26.421875 22.792969 27.324219 25 C 27.335938 25.03125 27.351562 25.0625 27.367188 25.09375 C 27.480469 25.40625 27.597656 25.71875 27.695312 26.035156 C 27.949219 26.851562 28.125 27.683594 28.21875 28.53125 C 28.273438 29.011719 28.300781 29.492188 28.304688 29.972656 C 28.304688 30.035156 28.285156 30.046875 28.230469 30.046875 Z M 35.078125 30.046875 C 33.769531 30.042969 32.460938 30.042969 31.152344 30.046875 C 31.097656 30.046875 31.082031 30.03125 31.082031 29.976562 C 31.082031 29.46875 31.058594 28.960938 31.007812 28.457031 C 30.984375 28.246094 30.964844 28.035156 30.929688 27.824219 C 30.898438 27.621094 30.863281 27.414062 30.828125 27.207031 C 30.59375 25.761719 30.132812 24.390625 29.511719 23.066406 C 29.503906 23.058594 29.5 23.046875 29.492188 23.035156 C 29.386719 22.789062 29.261719 22.550781 29.128906 22.316406 C 27.074219 18.625 24.058594 16.070312 20.066406 14.675781 C 19.125 14.34375 18.152344 14.121094 17.160156 13.980469 C 16.960938 13.953125 16.757812 13.933594 16.554688 13.914062 C 16.355469 13.890625 16.15625 13.875 15.960938 13.859375 C 15.824219 13.851562 15.6875 13.84375 15.546875 13.839844 C 15.335938 13.832031 15.121094 13.820312 14.90625 13.816406 C 14.871094 13.816406 14.859375 13.800781 14.859375 13.769531 C 14.863281 13.75 14.859375 13.730469 14.859375 13.710938 C 14.859375 12.765625 14.859375 11.824219 14.859375 10.882812 C 14.859375 10.851562 14.859375 10.820312 14.855469 10.789062 C 14.859375 10.46875 14.859375 10.148438 14.859375 9.832031 C 14.859375 9.773438 14.875 9.761719 14.929688 9.761719 C 15.113281 9.765625 15.300781 9.765625 15.484375 9.769531 C 15.628906 9.777344 15.777344 9.785156 15.921875 9.792969 C 18.5 9.925781 20.964844 10.527344 23.316406 11.605469 C 23.636719 11.75 23.953125 11.910156 24.265625 12.074219 C 25.625 12.78125 26.882812 13.636719 28.046875 14.632812 C 29.164062 15.589844 30.167969 16.65625 31.050781 17.832031 C 31.578125 18.53125 32.0625 19.257812 32.492188 20.015625 C 32.5 20.027344 32.507812 20.035156 32.515625 20.046875 C 32.683594 20.359375 32.855469 20.671875 33.011719 20.988281 C 33.789062 22.546875 34.359375 24.179688 34.714844 25.882812 C 34.8125 26.359375 34.898438 26.839844 34.960938 27.324219 C 34.996094 27.617188 35.03125 27.910156 35.054688 28.207031 C 35.078125 28.503906 35.101562 28.796875 35.117188 29.09375 C 35.128906 29.386719 35.136719 29.683594 35.144531 29.980469 C 35.144531 30.035156 35.125 30.046875 35.078125 30.046875 Z M 35.078125 30.046875 "/>
<path style=" stroke:none;fill-rule:nonzero;fill:rgb(0%,0%,0%);fill-opacity:1;" d="M 5.09375 40.417969 C 5.089844 40.417969 5.085938 40.421875 5.078125 40.421875 C 5.074219 40.425781 5.070312 40.425781 5.0625 40.425781 C 5.046875 40.425781 5.03125 40.421875 5.019531 40.410156 C 5.011719 40.402344 5.007812 40.386719 5.007812 40.371094 C 5.007812 40.355469 5.011719 40.34375 5.019531 40.332031 C 5.03125 40.324219 5.046875 40.316406 5.0625 40.316406 C 5.066406 40.316406 5.074219 40.320312 5.078125 40.320312 C 5.085938 40.324219 5.089844 40.324219 5.09375 40.324219 L 5.09375 40.347656 C 5.089844 40.34375 5.085938 40.34375 5.078125 40.339844 C 5.074219 40.339844 5.070312 40.339844 5.066406 40.339844 C 5.054688 40.339844 5.046875 40.339844 5.042969 40.347656 C 5.039062 40.355469 5.035156 40.363281 5.035156 40.371094 C 5.035156 40.382812 5.039062 40.390625 5.042969 40.398438 C 5.046875 40.402344 5.054688 40.40625 5.066406 40.40625 C 5.070312 40.40625 5.074219 40.40625 5.078125 40.40625 C 5.085938 40.402344 5.089844 40.398438 5.09375 40.398438 Z M 5.09375 40.417969 "/>
<path style=" stroke:none;fill-rule:nonzero;fill:rgb(0%,0%,0%);fill-opacity:1;" d="M 5.171875 40.367188 C 5.171875 40.367188 5.167969 40.367188 5.167969 40.363281 C 5.164062 40.363281 5.160156 40.363281 5.160156 40.363281 C 5.152344 40.363281 5.148438 40.367188 5.144531 40.371094 C 5.140625 40.375 5.140625 40.378906 5.140625 40.386719 L 5.140625 40.421875 L 5.117188 40.421875 L 5.117188 40.347656 L 5.140625 40.347656 L 5.140625 40.359375 C 5.144531 40.355469 5.148438 40.351562 5.152344 40.347656 C 5.15625 40.347656 5.160156 40.34375 5.167969 40.34375 L 5.171875 40.34375 Z M 5.171875 40.367188 "/>
<path style=" stroke:none;fill-rule:nonzero;fill:rgb(0%,0%,0%);fill-opacity:1;" d="M 5.261719 40.382812 L 5.261719 40.390625 L 5.203125 40.390625 C 5.207031 40.398438 5.207031 40.402344 5.210938 40.40625 C 5.214844 40.40625 5.21875 40.410156 5.226562 40.410156 C 5.230469 40.410156 5.234375 40.410156 5.242188 40.40625 C 5.246094 40.40625 5.253906 40.402344 5.257812 40.398438 L 5.257812 40.417969 C 5.253906 40.421875 5.246094 40.421875 5.242188 40.421875 C 5.234375 40.425781 5.230469 40.425781 5.222656 40.425781 C 5.210938 40.425781 5.199219 40.421875 5.191406 40.414062 C 5.183594 40.410156 5.179688 40.398438 5.179688 40.386719 C 5.179688 40.371094 5.183594 40.363281 5.191406 40.355469 C 5.199219 40.347656 5.210938 40.34375 5.222656 40.34375 C 5.234375 40.34375 5.242188 40.347656 5.25 40.355469 C 5.257812 40.363281 5.261719 40.371094 5.261719 40.382812 Z M 5.238281 40.375 C 5.238281 40.371094 5.234375 40.367188 5.234375 40.363281 C 5.230469 40.363281 5.226562 40.359375 5.222656 40.359375 C 5.21875 40.359375 5.214844 40.363281 5.210938 40.363281 C 5.207031 40.367188 5.207031 40.371094 5.203125 40.375 Z M 5.238281 40.375 "/>
<path style=" stroke:none;fill-rule:nonzero;fill:rgb(0%,0%,0%);fill-opacity:1;" d="M 5.316406 40.386719 C 5.308594 40.386719 5.304688 40.390625 5.304688 40.390625 C 5.300781 40.394531 5.300781 40.394531 5.300781 40.398438 C 5.300781 40.402344 5.300781 40.402344 5.300781 40.40625 C 5.304688 40.40625 5.308594 40.410156 5.3125 40.410156 C 5.316406 40.410156 5.320312 40.40625 5.324219 40.402344 C 5.324219 40.402344 5.328125 40.394531 5.328125 40.390625 L 5.328125 40.386719 Z M 5.351562 40.378906 L 5.351562 40.421875 L 5.328125 40.421875 L 5.328125 40.410156 C 5.324219 40.417969 5.320312 40.421875 5.316406 40.421875 C 5.3125 40.425781 5.308594 40.425781 5.300781 40.425781 C 5.292969 40.425781 5.289062 40.421875 5.28125 40.417969 C 5.277344 40.414062 5.273438 40.40625 5.273438 40.398438 C 5.273438 40.390625 5.277344 40.382812 5.285156 40.382812 C 5.289062 40.375 5.300781 40.375 5.3125 40.375 L 5.328125 40.375 L 5.328125 40.371094 C 5.328125 40.367188 5.328125 40.367188 5.324219 40.363281 C 5.320312 40.363281 5.316406 40.359375 5.308594 40.359375 C 5.304688 40.359375 5.300781 40.363281 5.292969 40.363281 C 5.289062 40.363281 5.285156 40.363281 5.28125 40.367188 L 5.28125 40.347656 C 5.289062 40.347656 5.292969 40.347656 5.296875 40.34375 C 5.304688 40.34375 5.308594 40.34375 5.3125 40.34375 C 5.328125 40.34375 5.335938 40.347656 5.34375 40.351562 C 5.351562 40.359375 5.351562 40.367188 5.351562 40.378906 Z M 5.351562 40.378906 "/>
<path style=" stroke:none;fill-rule:nonzero;fill:rgb(0%,0%,0%);fill-opacity:1;" d="M 5.402344 40.324219 L 5.402344 40.347656 L 5.429688 40.347656 L 5.429688 40.363281 L 5.402344 40.363281 L 5.402344 40.394531 C 5.402344 40.402344 5.402344 40.402344 5.40625 40.40625 C 5.40625 40.40625 5.410156 40.40625 5.414062 40.40625 L 5.425781 40.40625 L 5.425781 40.421875 L 5.40625 40.421875 C 5.394531 40.421875 5.390625 40.421875 5.382812 40.417969 C 5.378906 40.414062 5.378906 40.40625 5.378906 40.394531 L 5.378906 40.363281 L 5.367188 40.363281 L 5.367188 40.347656 L 5.378906 40.347656 L 5.378906 40.324219 Z M 5.402344 40.324219 "/>
<path style=" stroke:none;fill-rule:nonzero;fill:rgb(0%,0%,0%);fill-opacity:1;" d="M 5.519531 40.382812 L 5.519531 40.390625 L 5.464844 40.390625 C 5.464844 40.398438 5.464844 40.402344 5.46875 40.40625 C 5.472656 40.40625 5.476562 40.410156 5.484375 40.410156 C 5.488281 40.410156 5.496094 40.410156 5.5 40.40625 C 5.503906 40.40625 5.511719 40.402344 5.515625 40.398438 L 5.515625 40.417969 C 5.511719 40.421875 5.503906 40.421875 5.5 40.421875 C 5.492188 40.425781 5.488281 40.425781 5.480469 40.425781 C 5.46875 40.425781 5.457031 40.421875 5.449219 40.414062 C 5.441406 40.410156 5.4375 40.398438 5.4375 40.386719 C 5.4375 40.371094 5.441406 40.363281 5.449219 40.355469 C 5.457031 40.347656 5.46875 40.34375 5.480469 40.34375 C 5.492188 40.34375 5.503906 40.347656 5.507812 40.355469 C 5.515625 40.363281 5.519531 40.371094 5.519531 40.382812 Z M 5.496094 40.375 C 5.496094 40.371094 5.492188 40.367188 5.492188 40.363281 C 5.488281 40.363281 5.484375 40.359375 5.480469 40.359375 C 5.476562 40.359375 5.472656 40.363281 5.46875 40.363281 C 5.464844 40.367188 5.464844 40.371094 5.464844 40.375 Z M 5.496094 40.375 "/>
<path style=" stroke:none;fill-rule:nonzero;fill:rgb(0%,0%,0%);fill-opacity:1;" d="M 5.589844 40.355469 L 5.589844 40.316406 L 5.617188 40.316406 L 5.617188 40.421875 L 5.589844 40.421875 L 5.589844 40.410156 C 5.585938 40.417969 5.585938 40.421875 5.578125 40.421875 C 5.574219 40.425781 5.570312 40.425781 5.566406 40.425781 C 5.554688 40.425781 5.546875 40.421875 5.542969 40.414062 C 5.535156 40.40625 5.535156 40.398438 5.535156 40.386719 C 5.535156 40.375 5.535156 40.363281 5.542969 40.355469 C 5.546875 40.347656 5.558594 40.34375 5.566406 40.34375 C 5.570312 40.34375 5.574219 40.34375 5.578125 40.347656 C 5.585938 40.347656 5.585938 40.351562 5.589844 40.355469 Z M 5.574219 40.40625 C 5.582031 40.40625 5.585938 40.40625 5.585938 40.402344 C 5.589844 40.398438 5.589844 40.390625 5.589844 40.386719 C 5.589844 40.378906 5.589844 40.371094 5.585938 40.367188 C 5.585938 40.363281 5.582031 40.363281 5.574219 40.363281 C 5.570312 40.363281 5.566406 40.363281 5.5625 40.367188 C 5.558594 40.371094 5.558594 40.378906 5.558594 40.386719 C 5.558594 40.390625 5.558594 40.398438 5.5625 40.402344 C 5.566406 40.40625 5.570312 40.40625 5.574219 40.40625 Z M 5.574219 40.40625 "/>
<path style=" stroke:none;fill-rule:nonzero;fill:rgb(0%,0%,0%);fill-opacity:1;" d="M 5.730469 40.40625 C 5.734375 40.40625 5.738281 40.40625 5.742188 40.402344 C 5.746094 40.398438 5.746094 40.390625 5.746094 40.386719 C 5.746094 40.378906 5.746094 40.371094 5.742188 40.367188 C 5.738281 40.363281 5.734375 40.363281 5.730469 40.363281 C 5.726562 40.363281 5.71875 40.363281 5.71875 40.367188 C 5.714844 40.371094 5.714844 40.378906 5.714844 40.386719 C 5.714844 40.390625 5.714844 40.398438 5.71875 40.402344 C 5.71875 40.40625 5.722656 40.40625 5.730469 40.40625 Z M 5.714844 40.359375 C 5.71875 40.351562 5.71875 40.347656 5.722656 40.347656 C 5.730469 40.34375 5.734375 40.34375 5.738281 40.34375 C 5.75 40.34375 5.757812 40.347656 5.761719 40.355469 C 5.769531 40.363281 5.773438 40.375 5.773438 40.386719 C 5.773438 40.398438 5.769531 40.40625 5.761719 40.414062 C 5.757812 40.421875 5.75 40.425781 5.738281 40.425781 C 5.734375 40.425781 5.730469 40.425781 5.722656 40.421875 C 5.71875 40.421875 5.71875 40.417969 5.714844 40.414062 L 5.714844 40.421875 L 5.691406 40.421875 L 5.691406 40.316406 L 5.714844 40.316406 Z M 5.714844 40.359375 "/>
<path style=" stroke:none;fill-rule:nonzero;fill:rgb(0%,0%,0%);fill-opacity:1;" d="M 5.78125 40.347656 L 5.804688 40.347656 L 5.824219 40.398438 L 5.84375 40.347656 L 5.867188 40.347656 L 5.835938 40.429688 C 5.832031 40.4375 5.828125 40.445312 5.824219 40.449219 C 5.820312 40.453125 5.8125 40.453125 5.804688 40.453125 L 5.792969 40.453125 L 5.792969 40.4375 L 5.800781 40.4375 C 5.804688 40.4375 5.808594 40.4375 5.808594 40.4375 C 5.8125 40.433594 5.8125 40.433594 5.8125 40.429688 L 5.8125 40.425781 Z M 5.78125 40.347656 "/>
<path style=" stroke:none;fill-rule:nonzero;fill:rgb(0%,0%,0%);fill-opacity:1;" d="M 5.972656 40.359375 C 5.976562 40.359375 5.980469 40.359375 5.984375 40.359375 C 5.984375 40.355469 5.984375 40.355469 5.984375 40.347656 C 5.984375 40.347656 5.984375 40.34375 5.984375 40.339844 C 5.980469 40.339844 5.976562 40.339844 5.972656 40.339844 L 5.957031 40.339844 L 5.957031 40.359375 Z M 5.972656 40.40625 C 5.980469 40.40625 5.984375 40.402344 5.984375 40.402344 C 5.988281 40.398438 5.988281 40.394531 5.988281 40.390625 C 5.988281 40.386719 5.988281 40.382812 5.984375 40.382812 C 5.984375 40.378906 5.980469 40.378906 5.972656 40.378906 L 5.957031 40.378906 L 5.957031 40.40625 Z M 6 40.367188 C 6.003906 40.371094 6.007812 40.375 6.011719 40.378906 C 6.015625 40.382812 6.015625 40.386719 6.015625 40.394531 C 6.015625 40.402344 6.011719 40.410156 6.007812 40.417969 C 6 40.421875 5.988281 40.421875 5.976562 40.421875 L 5.933594 40.421875 L 5.933594 40.320312 L 5.972656 40.320312 C 5.984375 40.320312 5.996094 40.324219 6.003906 40.328125 C 6.007812 40.332031 6.011719 40.339844 6.011719 40.347656 C 6.011719 40.351562 6.011719 40.355469 6.007812 40.359375 C 6.007812 40.363281 6.003906 40.367188 6 40.367188 Z M 6 40.367188 "/>
<path style=" stroke:none;fill-rule:nonzero;fill:rgb(0%,0%,0%);fill-opacity:1;" d="M 6.097656 40.367188 C 6.09375 40.367188 6.089844 40.367188 6.089844 40.363281 C 6.085938 40.363281 6.085938 40.363281 6.082031 40.363281 C 6.078125 40.363281 6.070312 40.367188 6.070312 40.371094 C 6.066406 40.375 6.0625 40.378906 6.0625 40.386719 L 6.0625 40.421875 L 6.039062 40.421875 L 6.039062 40.347656 L 6.0625 40.347656 L 6.0625 40.359375 C 6.066406 40.355469 6.070312 40.351562 6.074219 40.347656 C 6.078125 40.347656 6.082031 40.34375 6.089844 40.34375 L 6.097656 40.34375 Z M 6.097656 40.367188 "/>
<path style=" stroke:none;fill-rule:nonzero;fill:rgb(0%,0%,0%);fill-opacity:1;" d="M 6.109375 40.394531 L 6.109375 40.347656 L 6.132812 40.347656 L 6.132812 40.394531 C 6.132812 40.398438 6.132812 40.402344 6.132812 40.402344 C 6.136719 40.402344 6.136719 40.40625 6.136719 40.40625 C 6.140625 40.40625 6.140625 40.40625 6.144531 40.40625 C 6.148438 40.40625 6.152344 40.40625 6.15625 40.402344 C 6.160156 40.398438 6.160156 40.390625 6.160156 40.382812 L 6.160156 40.347656 L 6.183594 40.347656 L 6.183594 40.421875 L 6.160156 40.421875 L 6.160156 40.410156 C 6.15625 40.417969 6.152344 40.417969 6.148438 40.421875 C 6.144531 40.425781 6.140625 40.425781 6.132812 40.425781 C 6.125 40.425781 6.117188 40.421875 6.113281 40.417969 C 6.109375 40.410156 6.109375 40.402344 6.109375 40.394531 Z M 6.109375 40.394531 "/>
<path style=" stroke:none;fill-rule:nonzero;fill:rgb(0%,0%,0%);fill-opacity:1;" d="M 6.285156 40.375 L 6.285156 40.421875 L 6.261719 40.421875 L 6.261719 40.386719 C 6.261719 40.378906 6.261719 40.375 6.261719 40.375 C 6.261719 40.371094 6.261719 40.371094 6.257812 40.367188 C 6.257812 40.367188 6.257812 40.363281 6.253906 40.363281 C 6.253906 40.363281 6.25 40.363281 6.25 40.363281 C 6.242188 40.363281 6.238281 40.363281 6.238281 40.371094 C 6.234375 40.375 6.234375 40.378906 6.234375 40.386719 L 6.234375 40.421875 L 6.210938 40.421875 L 6.210938 40.347656 L 6.234375 40.347656 L 6.234375 40.359375 C 6.238281 40.351562 6.242188 40.351562 6.246094 40.347656 C 6.25 40.34375 6.253906 40.34375 6.257812 40.34375 C 6.265625 40.34375 6.273438 40.347656 6.277344 40.351562 C 6.285156 40.359375 6.285156 40.367188 6.285156 40.375 Z M 6.285156 40.375 "/>
<path style=" stroke:none;fill-rule:nonzero;fill:rgb(0%,0%,0%);fill-opacity:1;" d="M 6.34375 40.363281 C 6.339844 40.363281 6.335938 40.363281 6.332031 40.367188 C 6.328125 40.371094 6.328125 40.378906 6.328125 40.386719 C 6.328125 40.394531 6.328125 40.398438 6.332031 40.402344 C 6.335938 40.40625 6.339844 40.40625 6.34375 40.40625 C 6.351562 40.40625 6.355469 40.40625 6.359375 40.402344 C 6.359375 40.398438 6.363281 40.394531 6.363281 40.386719 C 6.363281 40.378906 6.359375 40.371094 6.359375 40.367188 C 6.355469 40.363281 6.351562 40.363281 6.34375 40.363281 Z M 6.34375 40.34375 C 6.359375 40.34375 6.371094 40.347656 6.375 40.355469 C 6.382812 40.363281 6.386719 40.371094 6.386719 40.386719 C 6.386719 40.398438 6.382812 40.40625 6.375 40.414062 C 6.371094 40.421875 6.359375 40.425781 6.34375 40.425781 C 6.332031 40.425781 6.324219 40.421875 6.3125 40.414062 C 6.308594 40.410156 6.304688 40.398438 6.304688 40.386719 C 6.304688 40.371094 6.308594 40.363281 6.3125 40.355469 C 6.324219 40.347656 6.332031 40.34375 6.34375 40.34375 Z M 6.34375 40.34375 "/>
<path style=" stroke:none;fill-rule:nonzero;fill:rgb(0%,0%,0%);fill-opacity:1;" d="M 6.496094 40.359375 C 6.5 40.359375 6.503906 40.359375 6.507812 40.359375 C 6.507812 40.355469 6.511719 40.355469 6.511719 40.347656 C 6.511719 40.347656 6.507812 40.34375 6.507812 40.339844 C 6.503906 40.339844 6.5 40.339844 6.496094 40.339844 L 6.484375 40.339844 L 6.484375 40.359375 Z M 6.5 40.40625 C 6.503906 40.40625 6.507812 40.402344 6.507812 40.402344 C 6.511719 40.398438 6.515625 40.394531 6.515625 40.390625 C 6.515625 40.386719 6.511719 40.382812 6.507812 40.382812 C 6.507812 40.378906 6.503906 40.378906 6.5 40.378906 L 6.484375 40.378906 L 6.484375 40.40625 Z M 6.523438 40.367188 C 6.527344 40.371094 6.53125 40.375 6.535156 40.378906 C 6.539062 40.382812 6.539062 40.386719 6.539062 40.394531 C 6.539062 40.402344 6.539062 40.410156 6.53125 40.417969 C 6.523438 40.421875 6.515625 40.421875 6.5 40.421875 L 6.457031 40.421875 L 6.457031 40.320312 L 6.496094 40.320312 C 6.511719 40.320312 6.519531 40.324219 6.527344 40.328125 C 6.53125 40.332031 6.535156 40.339844 6.535156 40.347656 C 6.535156 40.351562 6.535156 40.355469 6.53125 40.359375 C 6.53125 40.363281 6.527344 40.367188 6.523438 40.367188 Z M 6.523438 40.367188 "/>
<path style=" stroke:none;fill-rule:nonzero;fill:rgb(0%,0%,0%);fill-opacity:1;" d="M 6.597656 40.363281 C 6.59375 40.363281 6.589844 40.363281 6.585938 40.367188 C 6.582031 40.371094 6.582031 40.378906 6.582031 40.386719 C 6.582031 40.394531 6.582031 40.398438 6.585938 40.402344 C 6.589844 40.40625 6.59375 40.40625 6.597656 40.40625 C 6.605469 40.40625 6.609375 40.40625 6.613281 40.402344 C 6.613281 40.398438 6.617188 40.394531 6.617188 40.386719 C 6.617188 40.378906 6.613281 40.371094 6.613281 40.367188 C 6.609375 40.363281 6.605469 40.363281 6.597656 40.363281 Z M 6.597656 40.34375 C 6.613281 40.34375 6.621094 40.347656 6.628906 40.355469 C 6.636719 40.363281 6.640625 40.371094 6.640625 40.386719 C 6.640625 40.398438 6.636719 40.40625 6.628906 40.414062 C 6.621094 40.421875 6.613281 40.425781 6.597656 40.425781 C 6.585938 40.425781 6.574219 40.421875 6.566406 40.414062 C 6.558594 40.410156 6.558594 40.398438 6.558594 40.386719 C 6.558594 40.371094 6.558594 40.363281 6.566406 40.355469 C 6.574219 40.347656 6.585938 40.34375 6.597656 40.34375 Z M 6.597656 40.34375 "/>
<path style=" stroke:none;fill-rule:nonzero;fill:rgb(0%,0%,0%);fill-opacity:1;" d="M 6.71875 40.347656 L 6.71875 40.367188 C 6.714844 40.363281 6.707031 40.363281 6.703125 40.363281 C 6.699219 40.363281 6.695312 40.359375 6.691406 40.359375 C 6.6875 40.359375 6.683594 40.363281 6.679688 40.363281 C 6.679688 40.363281 6.675781 40.363281 6.675781 40.367188 C 6.675781 40.371094 6.679688 40.371094 6.679688 40.371094 C 6.683594 40.375 6.683594 40.375 6.691406 40.375 C 6.707031 40.375 6.714844 40.378906 6.71875 40.382812 C 6.722656 40.386719 6.726562 40.394531 6.726562 40.402344 C 6.726562 40.410156 6.722656 40.414062 6.714844 40.417969 C 6.710938 40.421875 6.703125 40.425781 6.691406 40.425781 C 6.683594 40.425781 6.679688 40.425781 6.671875 40.425781 C 6.667969 40.421875 6.660156 40.421875 6.65625 40.417969 L 6.65625 40.402344 C 6.660156 40.402344 6.667969 40.40625 6.671875 40.40625 C 6.675781 40.410156 6.683594 40.410156 6.6875 40.410156 C 6.691406 40.410156 6.695312 40.410156 6.699219 40.40625 C 6.699219 40.40625 6.703125 40.402344 6.703125 40.402344 C 6.703125 40.398438 6.699219 40.398438 6.699219 40.394531 C 6.699219 40.394531 6.695312 40.394531 6.691406 40.394531 L 6.683594 40.394531 C 6.675781 40.390625 6.667969 40.390625 6.660156 40.386719 C 6.65625 40.382812 6.65625 40.375 6.65625 40.367188 C 6.65625 40.359375 6.660156 40.355469 6.664062 40.351562 C 6.667969 40.347656 6.679688 40.34375 6.691406 40.34375 C 6.695312 40.34375 6.699219 40.34375 6.703125 40.34375 C 6.710938 40.347656 6.714844 40.347656 6.71875 40.347656 Z M 6.71875 40.347656 "/>
<path style=" stroke:none;fill-rule:nonzero;fill:rgb(0%,0%,0%);fill-opacity:1;" d="M 6.804688 40.347656 L 6.804688 40.367188 C 6.796875 40.363281 6.792969 40.363281 6.789062 40.363281 C 6.785156 40.363281 6.777344 40.359375 6.773438 40.359375 C 6.769531 40.359375 6.765625 40.363281 6.765625 40.363281 C 6.761719 40.363281 6.761719 40.363281 6.761719 40.367188 C 6.761719 40.371094 6.761719 40.371094 6.761719 40.371094 C 6.765625 40.375 6.769531 40.375 6.773438 40.375 L 6.777344 40.375 C 6.789062 40.375 6.796875 40.378906 6.800781 40.382812 C 6.808594 40.386719 6.808594 40.394531 6.808594 40.402344 C 6.808594 40.410156 6.804688 40.414062 6.800781 40.417969 C 6.792969 40.421875 6.785156 40.425781 6.773438 40.425781 C 6.769531 40.425781 6.761719 40.425781 6.757812 40.425781 C 6.75 40.421875 6.746094 40.421875 6.742188 40.417969 L 6.742188 40.402344 C 6.746094 40.402344 6.75 40.40625 6.753906 40.40625 C 6.761719 40.410156 6.765625 40.410156 6.769531 40.410156 C 6.777344 40.410156 6.78125 40.410156 6.78125 40.40625 C 6.785156 40.40625 6.785156 40.402344 6.785156 40.402344 C 6.785156 40.398438 6.785156 40.398438 6.785156 40.394531 C 6.78125 40.394531 6.777344 40.394531 6.773438 40.394531 L 6.769531 40.394531 C 6.757812 40.390625 6.75 40.390625 6.746094 40.386719 C 6.742188 40.382812 6.738281 40.375 6.738281 40.367188 C 6.738281 40.359375 6.742188 40.355469 6.746094 40.351562 C 6.753906 40.347656 6.761719 40.34375 6.773438 40.34375 C 6.777344 40.34375 6.78125 40.34375 6.789062 40.34375 C 6.792969 40.347656 6.796875 40.347656 6.804688 40.347656 Z M 6.804688 40.347656 "/>
<path style=" stroke:none;fill-rule:nonzero;fill:rgb(0%,0%,0%);fill-opacity:1;" d="M 6.90625 40.382812 L 6.90625 40.390625 L 6.847656 40.390625 C 6.847656 40.398438 6.851562 40.402344 6.851562 40.40625 C 6.855469 40.40625 6.863281 40.410156 6.867188 40.410156 C 6.875 40.410156 6.878906 40.410156 6.882812 40.40625 C 6.890625 40.40625 6.894531 40.402344 6.902344 40.398438 L 6.902344 40.417969 C 6.894531 40.421875 6.890625 40.421875 6.882812 40.421875 C 6.878906 40.425781 6.871094 40.425781 6.867188 40.425781 C 6.851562 40.425781 6.839844 40.421875 6.832031 40.414062 C 6.824219 40.410156 6.820312 40.398438 6.820312 40.386719 C 6.820312 40.371094 6.824219 40.363281 6.832031 40.355469 C 6.839844 40.347656 6.851562 40.34375 6.867188 40.34375 C 6.878906 40.34375 6.886719 40.347656 6.894531 40.355469 C 6.902344 40.363281 6.90625 40.371094 6.90625 40.382812 Z M 6.878906 40.375 C 6.878906 40.371094 6.878906 40.367188 6.875 40.363281 C 6.871094 40.363281 6.867188 40.359375 6.863281 40.359375 C 6.859375 40.359375 6.855469 40.363281 6.851562 40.363281 C 6.851562 40.367188 6.847656 40.371094 6.847656 40.375 Z M 6.878906 40.375 "/>
<path style=" stroke:none;fill-rule:nonzero;fill:rgb(0%,0%,0%);fill-opacity:1;" d="M 5.0625 40.457031 L 5.0625 40.472656 L 5.050781 40.472656 C 5.046875 40.472656 5.042969 40.476562 5.042969 40.476562 C 5.039062 40.476562 5.039062 40.480469 5.039062 40.480469 L 5.039062 40.488281 L 5.058594 40.488281 L 5.058594 40.503906 L 5.039062 40.503906 L 5.039062 40.566406 L 5.015625 40.566406 L 5.015625 40.503906 L 5.003906 40.503906 L 5.003906 40.488281 L 5.015625 40.488281 L 5.015625 40.480469 C 5.015625 40.472656 5.015625 40.46875 5.019531 40.464844 C 5.027344 40.460938 5.035156 40.457031 5.042969 40.457031 Z M 5.0625 40.457031 "/>
<path style=" stroke:none;fill-rule:nonzero;fill:rgb(0%,0%,0%);fill-opacity:1;" d="M 5.128906 40.507812 C 5.128906 40.507812 5.125 40.507812 5.125 40.507812 C 5.121094 40.507812 5.121094 40.503906 5.117188 40.503906 C 5.109375 40.503906 5.105469 40.507812 5.101562 40.511719 C 5.101562 40.515625 5.097656 40.519531 5.097656 40.527344 L 5.097656 40.566406 L 5.074219 40.566406 L 5.074219 40.488281 L 5.097656 40.488281 L 5.097656 40.5 C 5.101562 40.496094 5.105469 40.492188 5.109375 40.488281 C 5.113281 40.488281 5.117188 40.484375 5.125 40.484375 C 5.125 40.484375 5.125 40.484375 5.125 40.488281 L 5.128906 40.488281 Z M 5.128906 40.507812 "/>
<path style=" stroke:none;fill-rule:nonzero;fill:rgb(0%,0%,0%);fill-opacity:1;" d="M 5.179688 40.503906 C 5.171875 40.503906 5.167969 40.503906 5.167969 40.507812 C 5.164062 40.511719 5.160156 40.519531 5.160156 40.527344 C 5.160156 40.535156 5.164062 40.539062 5.167969 40.542969 C 5.167969 40.546875 5.171875 40.550781 5.179688 40.550781 C 5.183594 40.550781 5.1875 40.546875 5.191406 40.542969 C 5.195312 40.539062 5.195312 40.535156 5.195312 40.527344 C 5.195312 40.519531 5.195312 40.511719 5.191406 40.507812 C 5.1875 40.503906 5.183594 40.503906 5.179688 40.503906 Z M 5.179688 40.484375 C 5.191406 40.484375 5.203125 40.488281 5.210938 40.496094 C 5.21875 40.503906 5.222656 40.515625 5.222656 40.527344 C 5.222656 40.539062 5.21875 40.550781 5.210938 40.558594 C 5.203125 40.5625 5.191406 40.566406 5.179688 40.566406 C 5.167969 40.566406 5.15625 40.5625 5.148438 40.558594 C 5.140625 40.550781 5.136719 40.539062 5.136719 40.527344 C 5.136719 40.515625 5.140625 40.503906 5.148438 40.496094 C 5.15625 40.488281 5.167969 40.484375 5.179688 40.484375 Z M 5.179688 40.484375 "/>
<path style=" stroke:none;fill-rule:nonzero;fill:rgb(0%,0%,0%);fill-opacity:1;" d="M 5.308594 40.5 C 5.3125 40.496094 5.316406 40.492188 5.320312 40.488281 C 5.324219 40.488281 5.332031 40.484375 5.335938 40.484375 C 5.34375 40.484375 5.351562 40.488281 5.355469 40.496094 C 5.359375 40.5 5.363281 40.507812 5.363281 40.519531 L 5.363281 40.566406 L 5.339844 40.566406 L 5.339844 40.519531 C 5.339844 40.515625 5.335938 40.511719 5.335938 40.507812 C 5.335938 40.507812 5.332031 40.503906 5.328125 40.503906 C 5.324219 40.503906 5.320312 40.507812 5.316406 40.511719 C 5.316406 40.511719 5.3125 40.519531 5.3125 40.527344 L 5.3125 40.566406 L 5.289062 40.566406 L 5.289062 40.523438 C 5.289062 40.515625 5.289062 40.511719 5.285156 40.507812 C 5.285156 40.507812 5.28125 40.503906 5.277344 40.503906 C 5.273438 40.503906 5.269531 40.507812 5.269531 40.511719 C 5.265625 40.515625 5.265625 40.519531 5.265625 40.527344 L 5.265625 40.566406 L 5.238281 40.566406 L 5.238281 40.488281 L 5.265625 40.488281 L 5.265625 40.5 C 5.265625 40.496094 5.269531 40.492188 5.273438 40.488281 C 5.277344 40.488281 5.28125 40.484375 5.289062 40.484375 C 5.292969 40.484375 5.296875 40.488281 5.300781 40.488281 C 5.304688 40.492188 5.308594 40.496094 5.308594 40.5 Z M 5.308594 40.5 "/>
<path style=" stroke:none;fill-rule:nonzero;fill:rgb(0%,0%,0%);fill-opacity:1;" d="M 5.464844 40.464844 L 5.464844 40.488281 L 5.488281 40.488281 L 5.488281 40.503906 L 5.464844 40.503906 L 5.464844 40.539062 C 5.464844 40.542969 5.464844 40.542969 5.464844 40.546875 C 5.464844 40.546875 5.46875 40.546875 5.472656 40.546875 L 5.484375 40.546875 L 5.484375 40.566406 L 5.464844 40.566406 C 5.457031 40.566406 5.449219 40.5625 5.445312 40.558594 C 5.441406 40.554688 5.4375 40.546875 5.4375 40.539062 L 5.4375 40.503906 L 5.425781 40.503906 L 5.425781 40.488281 L 5.4375 40.488281 L 5.4375 40.464844 Z M 5.464844 40.464844 "/>
<path style=" stroke:none;fill-rule:nonzero;fill:rgb(0%,0%,0%);fill-opacity:1;" d="M 5.582031 40.519531 L 5.582031 40.566406 L 5.554688 40.566406 L 5.554688 40.527344 C 5.554688 40.523438 5.554688 40.519531 5.554688 40.515625 C 5.554688 40.511719 5.554688 40.511719 5.554688 40.511719 C 5.554688 40.507812 5.550781 40.507812 5.550781 40.503906 C 5.546875 40.503906 5.546875 40.503906 5.542969 40.503906 C 5.539062 40.503906 5.535156 40.507812 5.53125 40.511719 C 5.53125 40.515625 5.527344 40.519531 5.527344 40.527344 L 5.527344 40.566406 L 5.503906 40.566406 L 5.503906 40.457031 L 5.527344 40.457031 L 5.527344 40.5 C 5.53125 40.492188 5.535156 40.492188 5.539062 40.488281 C 5.542969 40.488281 5.546875 40.484375 5.554688 40.484375 C 5.5625 40.484375 5.570312 40.488281 5.574219 40.496094 C 5.578125 40.5 5.582031 40.507812 5.582031 40.515625 Z M 5.582031 40.519531 "/>
<path style=" stroke:none;fill-rule:nonzero;fill:rgb(0%,0%,0%);fill-opacity:1;" d="M 5.679688 40.523438 L 5.679688 40.535156 L 5.625 40.535156 C 5.625 40.539062 5.625 40.542969 5.628906 40.546875 C 5.632812 40.546875 5.636719 40.550781 5.644531 40.550781 C 5.648438 40.550781 5.65625 40.550781 5.660156 40.546875 C 5.664062 40.546875 5.671875 40.542969 5.675781 40.542969 L 5.675781 40.558594 C 5.671875 40.5625 5.664062 40.5625 5.660156 40.566406 C 5.652344 40.566406 5.648438 40.566406 5.640625 40.566406 C 5.628906 40.566406 5.617188 40.5625 5.609375 40.558594 C 5.601562 40.550781 5.597656 40.539062 5.597656 40.527344 C 5.597656 40.515625 5.601562 40.503906 5.609375 40.496094 C 5.617188 40.488281 5.628906 40.484375 5.640625 40.484375 C 5.652344 40.484375 5.664062 40.488281 5.667969 40.496094 C 5.675781 40.503906 5.679688 40.511719 5.679688 40.523438 Z M 5.65625 40.515625 C 5.65625 40.511719 5.652344 40.507812 5.652344 40.507812 C 5.648438 40.503906 5.644531 40.5 5.640625 40.5 C 5.636719 40.5 5.632812 40.503906 5.628906 40.507812 C 5.625 40.507812 5.625 40.511719 5.625 40.515625 Z M 5.65625 40.515625 "/>
<path style=" stroke:none;fill-rule:nonzero;fill:rgb(0%,0%,0%);fill-opacity:1;" d="M 5.75 40.460938 L 5.777344 40.460938 L 5.816406 40.53125 L 5.816406 40.460938 L 5.839844 40.460938 L 5.839844 40.566406 L 5.8125 40.566406 L 5.773438 40.492188 L 5.773438 40.566406 L 5.75 40.566406 Z M 5.75 40.460938 "/>
<path style=" stroke:none;fill-rule:nonzero;fill:rgb(0%,0%,0%);fill-opacity:1;" d="M 5.902344 40.503906 C 5.898438 40.503906 5.894531 40.503906 5.890625 40.507812 C 5.886719 40.511719 5.886719 40.519531 5.886719 40.527344 C 5.886719 40.535156 5.886719 40.539062 5.890625 40.542969 C 5.894531 40.546875 5.898438 40.550781 5.902344 40.550781 C 5.910156 40.550781 5.914062 40.546875 5.914062 40.542969 C 5.917969 40.539062 5.917969 40.535156 5.917969 40.527344 C 5.917969 40.519531 5.917969 40.511719 5.914062 40.507812 C 5.914062 40.503906 5.910156 40.503906 5.902344 40.503906 Z M 5.902344 40.484375 C 5.917969 40.484375 5.925781 40.488281 5.933594 40.496094 C 5.941406 40.503906 5.945312 40.515625 5.945312 40.527344 C 5.945312 40.539062 5.941406 40.550781 5.933594 40.558594 C 5.925781 40.5625 5.917969 40.566406 5.902344 40.566406 C 5.890625 40.566406 5.878906 40.5625 5.871094 40.558594 C 5.863281 40.550781 5.859375 40.539062 5.859375 40.527344 C 5.859375 40.515625 5.863281 40.503906 5.871094 40.496094 C 5.878906 40.488281 5.890625 40.484375 5.902344 40.484375 Z M 5.902344 40.484375 "/>
<path style=" stroke:none;fill-rule:nonzero;fill:rgb(0%,0%,0%);fill-opacity:1;" d="M 5.964844 40.535156 L 5.964844 40.488281 L 5.988281 40.488281 L 5.988281 40.539062 C 5.988281 40.539062 5.988281 40.542969 5.988281 40.542969 C 5.992188 40.542969 5.992188 40.546875 5.992188 40.546875 C 5.996094 40.546875 5.996094 40.546875 6 40.546875 C 6.003906 40.546875 6.007812 40.546875 6.011719 40.542969 C 6.015625 40.539062 6.015625 40.53125 6.015625 40.523438 L 6.015625 40.488281 L 6.039062 40.488281 L 6.039062 40.5625 L 6.015625 40.5625 L 6.015625 40.554688 C 6.011719 40.558594 6.007812 40.5625 6.003906 40.5625 C 6 40.566406 5.996094 40.566406 5.988281 40.566406 C 5.980469 40.566406 5.972656 40.5625 5.96875 40.558594 C 5.964844 40.554688 5.964844 40.542969 5.964844 40.535156 Z M 5.964844 40.535156 "/>
<path style=" stroke:none;fill-rule:nonzero;fill:rgb(0%,0%,0%);fill-opacity:1;" d="M 6.140625 40.519531 L 6.140625 40.566406 L 6.117188 40.566406 L 6.117188 40.527344 C 6.117188 40.523438 6.117188 40.519531 6.117188 40.515625 C 6.117188 40.511719 6.117188 40.511719 6.113281 40.511719 C 6.113281 40.507812 6.113281 40.507812 6.109375 40.503906 C 6.109375 40.503906 6.105469 40.503906 6.105469 40.503906 C 6.097656 40.503906 6.09375 40.507812 6.09375 40.511719 C 6.089844 40.515625 6.089844 40.519531 6.089844 40.527344 L 6.089844 40.566406 L 6.066406 40.566406 L 6.066406 40.488281 L 6.089844 40.488281 L 6.089844 40.5 C 6.09375 40.496094 6.097656 40.492188 6.101562 40.488281 C 6.105469 40.488281 6.109375 40.484375 6.113281 40.484375 C 6.121094 40.484375 6.128906 40.488281 6.132812 40.496094 C 6.140625 40.5 6.140625 40.507812 6.140625 40.519531 Z M 6.140625 40.519531 "/>
<path style=" stroke:none;fill-rule:nonzero;fill:rgb(0%,0%,0%);fill-opacity:1;" d="M 6.214844 40.460938 L 6.257812 40.460938 C 6.273438 40.460938 6.28125 40.464844 6.289062 40.472656 C 6.296875 40.476562 6.300781 40.484375 6.300781 40.496094 C 6.300781 40.507812 6.296875 40.515625 6.289062 40.519531 C 6.28125 40.527344 6.273438 40.527344 6.257812 40.527344 L 6.242188 40.527344 L 6.242188 40.566406 L 6.214844 40.566406 Z M 6.242188 40.480469 L 6.242188 40.507812 L 6.253906 40.507812 C 6.261719 40.507812 6.265625 40.507812 6.269531 40.507812 C 6.269531 40.503906 6.273438 40.5 6.273438 40.496094 C 6.273438 40.492188 6.269531 40.488281 6.269531 40.484375 C 6.265625 40.480469 6.261719 40.480469 6.253906 40.480469 Z M 6.242188 40.480469 "/>
<path style=" stroke:none;fill-rule:nonzero;fill:rgb(0%,0%,0%);fill-opacity:1;" d="M 6.375 40.507812 C 6.371094 40.507812 6.371094 40.507812 6.367188 40.507812 C 6.367188 40.507812 6.363281 40.503906 6.359375 40.503906 C 6.355469 40.503906 6.351562 40.507812 6.347656 40.511719 C 6.34375 40.515625 6.34375 40.519531 6.34375 40.527344 L 6.34375 40.566406 L 6.316406 40.566406 L 6.316406 40.488281 L 6.34375 40.488281 L 6.34375 40.5 C 6.34375 40.496094 6.347656 40.492188 6.351562 40.488281 C 6.355469 40.488281 6.363281 40.484375 6.367188 40.484375 C 6.367188 40.484375 6.371094 40.484375 6.371094 40.488281 L 6.375 40.488281 Z M 6.375 40.507812 "/>
<path style=" stroke:none;fill-rule:nonzero;fill:rgb(0%,0%,0%);fill-opacity:1;" d="M 6.421875 40.503906 C 6.417969 40.503906 6.414062 40.503906 6.410156 40.507812 C 6.40625 40.511719 6.40625 40.519531 6.40625 40.527344 C 6.40625 40.535156 6.40625 40.539062 6.410156 40.542969 C 6.414062 40.546875 6.417969 40.550781 6.421875 40.550781 C 6.429688 40.550781 6.433594 40.546875 6.433594 40.542969 C 6.4375 40.539062 6.441406 40.535156 6.441406 40.527344 C 6.441406 40.519531 6.4375 40.511719 6.433594 40.507812 C 6.433594 40.503906 6.429688 40.503906 6.421875 40.503906 Z M 6.421875 40.484375 C 6.4375 40.484375 6.445312 40.488281 6.453125 40.496094 C 6.460938 40.503906 6.464844 40.515625 6.464844 40.527344 C 6.464844 40.539062 6.460938 40.550781 6.453125 40.558594 C 6.445312 40.5625 6.4375 40.566406 6.421875 40.566406 C 6.410156 40.566406 6.398438 40.5625 6.390625 40.558594 C 6.382812 40.550781 6.378906 40.539062 6.378906 40.527344 C 6.378906 40.515625 6.382812 40.503906 6.390625 40.496094 C 6.398438 40.488281 6.410156 40.484375 6.421875 40.484375 Z M 6.421875 40.484375 "/>
<path style=" stroke:none;fill-rule:nonzero;fill:rgb(0%,0%,0%);fill-opacity:1;" d="M 6.484375 40.488281 L 6.507812 40.488281 L 6.507812 40.5625 C 6.507812 40.574219 6.507812 40.582031 6.5 40.585938 C 6.496094 40.59375 6.488281 40.59375 6.480469 40.59375 L 6.46875 40.59375 L 6.46875 40.578125 L 6.472656 40.578125 C 6.476562 40.578125 6.480469 40.578125 6.480469 40.574219 C 6.484375 40.574219 6.484375 40.570312 6.484375 40.5625 Z M 6.484375 40.457031 L 6.507812 40.457031 L 6.507812 40.476562 L 6.484375 40.476562 Z M 6.484375 40.457031 "/>
<path style=" stroke:none;fill-rule:nonzero;fill:rgb(0%,0%,0%);fill-opacity:1;" d="M 6.609375 40.523438 L 6.609375 40.535156 L 6.550781 40.535156 C 6.550781 40.539062 6.554688 40.542969 6.558594 40.546875 C 6.5625 40.546875 6.566406 40.550781 6.574219 40.550781 C 6.578125 40.550781 6.582031 40.550781 6.589844 40.546875 C 6.59375 40.546875 6.597656 40.542969 6.605469 40.542969 L 6.605469 40.558594 C 6.597656 40.5625 6.59375 40.5625 6.585938 40.566406 C 6.582031 40.566406 6.578125 40.566406 6.570312 40.566406 C 6.554688 40.566406 6.546875 40.5625 6.539062 40.558594 C 6.53125 40.550781 6.527344 40.539062 6.527344 40.527344 C 6.527344 40.515625 6.53125 40.503906 6.539062 40.496094 C 6.546875 40.488281 6.554688 40.484375 6.570312 40.484375 C 6.582031 40.484375 6.589844 40.488281 6.597656 40.496094 C 6.605469 40.503906 6.609375 40.511719 6.609375 40.523438 Z M 6.585938 40.515625 C 6.585938 40.511719 6.582031 40.507812 6.578125 40.507812 C 6.578125 40.503906 6.574219 40.5 6.570312 40.5 C 6.5625 40.5 6.558594 40.503906 6.558594 40.507812 C 6.554688 40.507812 6.550781 40.511719 6.550781 40.515625 Z M 6.585938 40.515625 "/>
<path style=" stroke:none;fill-rule:nonzero;fill:rgb(0%,0%,0%);fill-opacity:1;" d="M 6.691406 40.488281 L 6.691406 40.507812 C 6.6875 40.507812 6.683594 40.507812 6.679688 40.503906 C 6.675781 40.503906 6.671875 40.503906 6.667969 40.503906 C 6.664062 40.503906 6.65625 40.503906 6.652344 40.507812 C 6.648438 40.511719 6.648438 40.519531 6.648438 40.527344 C 6.648438 40.53125 6.648438 40.539062 6.652344 40.542969 C 6.65625 40.546875 6.664062 40.546875 6.667969 40.546875 C 6.671875 40.546875 6.675781 40.546875 6.679688 40.546875 C 6.683594 40.546875 6.6875 40.542969 6.691406 40.542969 L 6.691406 40.5625 C 6.6875 40.5625 6.683594 40.566406 6.675781 40.566406 C 6.671875 40.566406 6.667969 40.566406 6.667969 40.566406 C 6.652344 40.566406 6.640625 40.5625 6.632812 40.554688 C 6.625 40.550781 6.621094 40.539062 6.621094 40.527344 C 6.621094 40.515625 6.625 40.503906 6.632812 40.496094 C 6.640625 40.488281 6.652344 40.484375 6.667969 40.484375 C 6.671875 40.484375 6.675781 40.484375 6.679688 40.484375 C 6.683594 40.488281 6.6875 40.488281 6.691406 40.488281 Z M 6.691406 40.488281 "/>
<path style=" stroke:none;fill-rule:nonzero;fill:rgb(0%,0%,0%);fill-opacity:1;" d="M 6.738281 40.464844 L 6.738281 40.488281 L 6.761719 40.488281 L 6.761719 40.503906 L 6.738281 40.503906 L 6.738281 40.539062 C 6.738281 40.542969 6.738281 40.542969 6.738281 40.546875 C 6.742188 40.546875 6.746094 40.546875 6.75 40.546875 L 6.761719 40.546875 L 6.761719 40.566406 L 6.742188 40.566406 C 6.730469 40.566406 6.722656 40.5625 6.71875 40.558594 C 6.714844 40.554688 6.714844 40.546875 6.714844 40.539062 L 6.714844 40.503906 L 6.703125 40.503906 L 6.703125 40.488281 L 6.714844 40.488281 L 6.714844 40.464844 Z M 6.738281 40.464844 "/>
</g>
</svg>
