<?xml version="1.0" encoding="UTF-8"?>
<svg height="377pt" viewBox="0 0 377 377.18192" width="377pt" xmlns="http://www.w3.org/2000/svg"><path d="m64.859375 180.714844c-.3125 26.253906 6.160156 51.652344 19.773437 73.3125l-73.09375 73.09375c-6.160156 6.164062-6.160156 16.160156 0 22.320312l16.300782 16.300782c6.160156 6.15625 16.152344 6.15625 22.320312 0l73.09375-73.09375c21.65625 13.613281 47.058594 20.085937 73.3125 19.773437zm0 0" fill="#8065c4"/><path d="m64.859375 180.714844-6.828125-.089844c-.007812.636719-.011719 1.265625-.011719 1.898438-.003906 26.75 6.78125 52.773437 20.832031 75.132812l5.777344-3.628906-4.828125-4.832032-73.089843 73.09375c-4.402344 4.402344-6.6289068 10.226563-6.6210942 15.988282-.0078126 5.761718 2.2226562 11.585937 6.6132812 15.980468l16.308594 16.308594c4.394531 4.398438 10.222656 6.625 15.984375 6.617188 5.765625.007812 11.585937-2.222656 15.984375-6.613282l73.097656-73.097656-4.828125-4.828125-3.632812 5.78125c22.351562 14.042969 48.378906 20.828125 75.132812 20.824219.675781 0 1.269531-.007812 1.777344-.007812 2.757812.015624 5.273437-1.648438 6.335937-4.195313s.480469-5.507813-1.472656-7.457031l-131.707031-131.707032c-1.9375-1.941406-4.863282-2.527343-7.398438-1.492187-2.539062 1.027344-4.21875 3.496094-4.253906 6.234375l6.828125.089844-4.828125 4.824218 131.707031 131.707032 4.828125-4.824219.035156-6.828125c-.703124-.007812-1.324218.007812-1.851562.007812-24.464844-.003906-47.894531-6.1875-67.867188-18.738281-2.6875-1.691406-6.210937-1.292969-8.457031.953125l-73.09375 73.09375c-1.765625 1.757813-4.023437 2.613282-6.335937 2.625-2.316406-.011718-4.566406-.863281-6.328125-2.625l-16.300781-16.300781c-1.761719-1.769531-2.613282-4.019531-2.621094-6.328125.003906-2.3125.859375-4.570312 2.621094-6.339844l73.089843-73.085937c2.261719-2.261719 2.65625-5.757813.957031-8.460938-12.554687-19.980469-18.738281-43.410156-18.742187-67.871093l.011719-1.726563-6.824219-.082031-4.828125 4.824218zm0 0" fill="#54596e"/><path d="m196.566406 312.421875c41.953125-.496094 86.097656-18.421875 120.726563-53.054687 63.984375-63.980469 71.21875-160.484376 16.167969-215.546876-55.0625-55.054687-151.570313-47.820312-215.546876 16.167969-34.636718 34.625-52.5625 78.773438-53.054687 120.726563zm0 0" fill="#fff"/><g fill="#54596e"><path d="m196.566406 312.421875.078125 6.820313c43.839844-.523438 89.621094-19.199219 125.476563-55.046876 36.359375-36.375 55.140625-82.964843 55.152344-127.390624.019531-36.46875-12.761719-71.609376-38.988282-97.8125-26.214844-26.226563-61.355468-39.0117192-97.820312-38.992188-44.421875.0117188-91.011719 18.789062-127.378906 55.160156-35.851563 35.847656-54.527344 81.632813-55.054688 125.46875-.019531 1.847656.691406 3.601563 2 4.910156l131.707031 131.707032c1.308594 1.308594 3.058594 2.019531 4.90625 1.996094l-.078125-6.820313 4.824219-4.832031-131.707031-131.707032-4.824219 4.832032 6.828125.078125c.460938-40.070313 17.636719-82.578125 51.054688-115.980469 33.882812-33.910156 77.15625-51.171875 117.722656-51.164062 33.34375.023437 64.722656 11.5625 88.167968 35 23.425782 23.429687 34.96875 54.8125 34.988282 88.15625.007812 40.570312-17.253906 83.84375-51.15625 117.730468-33.398438 33.417969-75.910156 50.59375-115.980469 51.058594l.082031 6.828125 4.824219-4.832031zm0 0"/><path d="m201.71875 111.207031c-2.746094 16.667969-2.125 41.171875 12.234375 55.246094 14.207031 13.925781 38.488281 14.09375 54.972656 11.21875zm0 0"/><path d="m201.71875 111.207031-6.734375-1.113281c-.835937 5.078125-1.378906 10.785156-1.378906 16.777344.003906 7.554687.855469 15.558594 3.199219 23.273437 2.34375 7.691407 6.226562 15.15625 12.367187 21.183594 5.894531 5.777344 13.085937 9.429687 20.492187 11.632813 7.421876 2.203124 15.109376 3.003906 22.40625 3.007812 6.464844 0 12.617188-.640625 18.011719-1.570312 2.511719-.433594 4.59375-2.246094 5.359375-4.679688.761719-2.429688.097656-5.113281-1.714844-6.902344l-67.207031-66.464844c-1.8125-1.792968-4.480469-2.425781-6.90625-1.640624-2.421875.785156-4.214843 2.867187-4.628906 5.382812l6.734375 1.113281-4.800781 4.851563 67.207031 66.46875 4.800781-4.855469-1.15625-6.730469c-4.71875.816406-10.144531 1.375-15.699219 1.375-6.28125.003906-12.726562-.714844-18.507812-2.441406-5.796875-1.730469-10.875-4.421875-14.832031-8.296875-4.140625-4.0625-7.019531-9.355469-8.863281-15.414063-1.847657-6.042968-2.613282-12.78125-2.609376-19.292968 0-5.160156.476563-10.171875 1.199219-14.554688l-6.738281-1.109375-4.800781 4.851563zm0 0"/><path d="m244.753906 67.792969c-5.386718-5.277344-14.03125-5.195313-19.308594.1875-5.28125 5.386719-5.195312 14.03125.191407 19.308593 5.382812 5.28125 14.027343 5.195313 19.308593-.1875 5.277344-5.382812 5.191407-14.027343-.191406-19.308593zm0 0"/><path d="m313.042969 134.652344c-5.382813-5.28125-14.027344-5.195313-19.308594.1875-5.277344 5.382812-5.191406 14.027344.191406 19.308594 5.386719 5.28125 14.03125 5.195312 19.308594-.1875 5.28125-5.386719 5.195313-14.03125-.191406-19.308594zm0 0"/></g><path d="m313.242188 173.628906c-5.332032-5.332031-13.976563-5.332031-19.3125-.003906-5.332032 5.332031-5.332032 13.980469 0 19.3125 5.332031 5.332031 13.976562 5.335938 19.308593.003906 5.335938-5.332031 5.335938-13.980468.003907-19.3125zm0 0" fill="#ff927d"/><path d="m202.222656 62.628906c-5.332031-5.332031-13.976562-5.332031-19.308594 0-5.332031 5.335938-5.332031 13.980469 0 19.3125 5.335938 5.332032 13.980469 5.332032 19.3125-.003906 5.332032-5.332031 5.332032-13.976562-.003906-19.308594zm0 0" fill="#ff927d"/><path d="m156.09375 57.347656c0 20.734375-16.8125 37.546875-37.546875 37.546875-20.738281 0-37.546875-16.8125-37.546875-37.546875 0-20.738281 16.808594-37.546875 37.546875-37.546875 20.734375 0 37.546875 16.808594 37.546875 37.546875zm0 0" fill="#fff35f"/><path d="m156.09375 57.347656h6.824219c-.003907-24.507812-19.863281-44.371094-44.371094-44.375-24.507813.003906-44.371094 19.867188-44.375 44.375.003906 24.503906 19.867187 44.367188 44.375 44.371094 24.507813-.003906 44.367187-19.867188 44.371094-44.371094h-13.652344c-.003906 8.5-3.429687 16.136719-9 21.71875-5.582031 5.574219-13.21875 8.996094-21.71875 9-8.503906-.003906-16.140625-3.429687-21.722656-9-5.570313-5.582031-8.996094-13.21875-9-21.71875.003906-8.503906 3.429687-16.140625 9-21.722656 5.582031-5.574219 13.21875-8.996094 21.722656-9 8.5.003906 16.136719 3.429688 21.71875 9 5.570313 5.582031 8.996094 13.21875 9 21.722656zm0 0" fill="#54596e"/></svg>